<svg width="38" height="38" viewBox="0 0 38 38" fill="none" xmlns="http://www.w3.org/2000/svg">
<g id="Icon">
<rect id="bg" width="38" height="38" rx="19" fill="#DCC152"/>
<g id="icon">
<path id="Vector" d="M22.5 19C22.5001 19.0716 22.485 19.1426 22.4557 19.2087C22.4264 19.2749 22.3833 19.335 22.3291 19.3856L16.4958 24.8401C16.2678 25.0533 15.8987 25.0533 15.671 24.8401C15.4432 24.627 15.443 24.2819 15.671 24.0689L21.0918 19L15.671 13.9311C15.443 13.7179 15.443 13.3728 15.671 13.1598C15.8989 12.9468 16.268 12.9467 16.4958 13.1598L22.3291 18.6143C22.3833 18.6649 22.4264 18.725 22.4557 18.7912C22.485 18.8574 22.5001 18.9283 22.5 19Z" fill="white"/>
</g>
</g>
</svg>
