<svg width="21" height="11" viewBox="0 0 21 11" fill="none" xmlns="http://www.w3.org/2000/svg">
<path d="M10.5 11C10.3796 11.0001 10.2604 10.9765 10.1492 10.9304C10.0379 10.8843 9.93693 10.8167 9.85192 10.7314L0.685266 1.5648C0.327079 1.20661 0.327079 0.626596 0.685266 0.268639C1.04345 -0.0893172 1.62347 -0.0895464 1.98143 0.268639L10.5 8.78718L19.0186 0.268639C19.3768 -0.0895464 19.9568 -0.0895464 20.3147 0.268639C20.6727 0.626825 20.6729 1.20684 20.3147 1.5648L11.1481 10.7314C11.0631 10.8167 10.9621 10.8843 10.8508 10.9304C10.7396 10.9765 10.6204 11.0001 10.5 11Z" fill="white" fill-opacity="0.8"/>
</svg>
