<svg width="152" height="30" viewBox="0 0 152 30" fill="none" xmlns="http://www.w3.org/2000/svg">
<path d="M15.3092 4.61622C13.8482 3.39877 11.9612 2.79004 9.61757 2.79004H-0.000305176V24.0955H4.68689V16.7603H9.43495C10.9872 16.7603 12.3568 16.4864 13.5743 15.9385C14.7917 15.3907 15.7353 14.5689 16.4353 13.5341C17.1049 12.4992 17.4701 11.2513 17.4701 9.79039C17.4701 7.5381 16.7397 5.83367 15.3092 4.61622ZM8.61317 13.4732H4.68689V6.4424H8.61317C9.86106 6.4424 10.8655 6.74676 11.6264 7.32505C12.3568 7.93378 12.7525 8.81643 12.7525 9.97301C12.7525 11.1296 12.3568 12.0122 11.6264 12.5905C10.8655 13.1993 9.86106 13.4732 8.61317 13.4732Z" fill="white"/>
<path d="M19.5517 24.0955H23.8737V2.79004H19.5517V24.0955Z" fill="white"/>
<path d="M27.5947 16.8821C26.5295 17.7038 26.012 18.83 26.012 20.23C26.012 21.6606 26.499 22.7563 27.473 23.4867C28.4469 24.2172 29.7557 24.5824 31.3384 24.5824C33.0124 24.5824 34.4125 24.1259 35.5082 23.1824C36.6039 22.2693 37.243 20.9301 37.4561 19.1952H37.6083L37.73 24.0955H41.8694V14.0515C41.8694 12.2557 41.2302 10.7948 39.9823 9.63821C38.704 8.48163 36.8169 7.90334 34.2907 7.90334C32.5559 7.90334 31.0949 8.2077 29.9079 8.81643C28.6904 9.42516 27.7774 10.2469 27.1686 11.2513C26.5599 12.2862 26.2251 13.4123 26.1642 14.6298H30.4557C30.5471 13.5949 30.9123 12.7427 31.5819 12.1036C32.2211 11.4948 33.1341 11.16 34.3212 11.16C35.4473 11.16 36.2691 11.4035 36.8169 11.8601C37.3344 12.347 37.6083 12.8949 37.6083 13.5036C37.6083 14.295 37.2126 14.8733 36.4517 15.2081C35.6604 15.5733 34.3212 15.7255 32.3732 15.695C30.2427 15.695 28.6296 16.0907 27.5947 16.8821ZM31.0036 21.2649C30.5775 20.9301 30.3949 20.4735 30.3949 19.8648C30.3949 19.317 30.5775 18.8909 30.9427 18.5561C31.308 18.2517 31.8254 18.0691 32.495 18.0082C33.7124 17.9473 34.656 17.7951 35.3256 17.5517C35.9952 17.3386 36.5126 17.0342 36.8169 16.6081C37.1213 16.2125 37.3344 15.6646 37.4561 14.995H37.6083V17.3995C37.6083 18.1604 37.3648 18.8604 36.9387 19.53C36.5126 20.1996 35.9343 20.7475 35.2038 21.1431C34.4733 21.5692 33.682 21.7519 32.8298 21.7519C32.0384 21.7519 31.4297 21.5997 31.0036 21.2649Z" fill="white"/>
<path d="M51.0445 20.2909H50.8923C50.2836 18.1908 49.6444 15.969 48.9139 13.6558L48.3661 11.8296L47.3008 8.39032H42.6136L48.3052 24.0346L48.0617 24.6433C47.6965 25.4042 47.3008 25.9216 46.8747 26.1956C46.4486 26.4999 45.7486 26.6217 44.8355 26.6217C44.1963 26.6217 43.6789 26.6217 43.3137 26.5608V29.9392C44.2267 30.0001 44.8964 30.0001 45.2616 30.0001C46.6921 30.0001 47.8791 29.8479 48.8531 29.5436C49.827 29.2392 50.6488 28.6609 51.3793 27.8696C52.0793 27.0782 52.7185 25.9521 53.2663 24.4911L59.2319 8.39032H54.6968L53.662 11.7383L53.3881 12.5601C52.3532 15.8168 51.5923 18.4039 51.0445 20.2909Z" fill="white"/>
<path fill-rule="evenodd" clip-rule="evenodd" d="M71.3023 1.52182H78.1606V12.7262C78.3589 11.9881 78.656 11.2811 79.0517 10.6083L79.0602 10.5939C79.8066 9.36233 80.9093 8.38704 82.3112 7.68496C83.7217 6.96309 85.3918 6.63512 87.2669 6.63512C89.9661 6.63512 92.2108 7.25146 93.8093 8.69777L93.8206 8.70798C95.3349 10.1115 96.1137 11.9129 96.1137 14.0514V25.3636H89.4692L89.4362 24.0364C89.3928 24.0747 89.3488 24.1126 89.3042 24.15C87.9356 25.3249 86.2252 25.8506 84.3146 25.8506C82.5463 25.8506 80.9435 25.4426 79.6883 24.5012C78.9854 23.9741 78.4822 23.3143 78.1606 22.5578V25.3636H71.498L71.4488 23.9554C71.2912 24.1076 71.1265 24.252 70.9546 24.3885C69.6843 25.3973 68.2159 25.881 66.6049 25.881C65.098 25.881 63.6956 25.4838 62.4695 24.6685C61.2052 23.8482 60.2659 22.6714 59.6332 21.203C58.9648 19.7528 58.6712 18.1061 58.6712 16.3037C58.6712 14.4961 58.9665 12.8532 59.6309 11.3793C60.2636 9.90839 61.2036 8.72978 62.4694 7.90857C63.678 7.10482 65.0763 6.66555 66.6049 6.66555C68.2366 6.66555 69.7003 7.1924 70.9546 8.1885L70.9635 8.19551L70.9722 8.20268C71.0853 8.29581 71.1953 8.39221 71.3023 8.49183V1.52182ZM72.5705 12.834H72.4183C72.3031 12.4346 72.1685 12.0585 72.015 11.7056C72.011 11.6963 72.0069 11.687 72.0028 11.6777C71.8096 11.2379 71.5869 10.8345 71.3356 10.4675C71.3245 10.4514 71.3134 10.4353 71.3023 10.4193C70.9713 9.94489 70.5918 9.53233 70.166 9.18162C69.1312 8.35984 67.9441 7.93373 66.6049 7.93373C65.3266 7.93373 64.17 8.29897 63.1656 8.96857C62.1308 9.63817 61.3395 10.6121 60.7916 11.8905C60.2133 13.1688 59.9394 14.6297 59.9394 16.3037C59.9394 17.9777 60.2133 19.4387 60.7916 20.6866C61.3395 21.9649 62.1308 22.9388 63.1656 23.6084C64.17 24.278 65.3266 24.6128 66.6049 24.6128C67.9441 24.6128 69.1312 24.2172 70.166 23.3954C70.6212 23.0339 71.0234 22.5958 71.37 22.0812C71.3742 22.0749 71.3784 22.0687 71.3826 22.0625C71.6171 21.7117 71.8259 21.3257 72.0082 20.9043C72.0104 20.8993 72.0126 20.8943 72.0147 20.8892C72.1677 20.534 72.3018 20.1537 72.4168 19.7484C72.4173 19.7466 72.4178 19.7448 72.4183 19.743H72.5704L72.7226 24.0954H76.8924V2.79H72.5705V12.834ZM72.4288 18.4748C72.5224 18.0823 72.5705 17.6625 72.5705 17.2168V15.3602C72.5705 14.9118 72.5218 14.4933 72.427 14.1022C72.4241 14.0903 72.4212 14.0785 72.4183 14.0667C72.3191 13.6706 72.1723 13.3027 71.9808 12.9602C71.957 12.9177 71.9326 12.8757 71.9074 12.834C71.7725 12.6101 71.6179 12.3973 71.4443 12.1948C71.3979 12.1447 71.3505 12.096 71.3023 12.0488C71.0401 11.7922 70.7512 11.5794 70.4369 11.4115C69.8616 11.1041 69.2009 10.9469 68.4616 10.9469C67.1832 10.9469 66.1788 11.4339 65.4179 12.3774C64.657 13.321 64.2918 14.6297 64.2918 16.3037C64.2918 17.9473 64.657 19.256 65.4179 20.1996C66.1788 21.1431 67.1832 21.5996 68.4616 21.5996C69.2136 21.5996 69.8844 21.4486 70.4667 21.1395C70.7798 20.9733 71.0673 20.7613 71.3281 20.5026C71.3674 20.4635 71.4062 20.4234 71.4443 20.3822C71.615 20.1901 71.7675 19.9847 71.9009 19.7664C71.9302 19.7185 71.9586 19.6699 71.986 19.6207C72.175 19.282 72.32 18.914 72.4183 18.5179C72.4218 18.5036 72.4253 18.4892 72.4288 18.4748ZM70.5051 19.5299C71.0029 18.9651 71.3023 18.2122 71.3023 17.2168V15.3602C71.3023 14.3825 71.0131 13.6485 70.4975 13.039C69.9965 12.5067 69.3432 12.2151 68.4616 12.2151C67.5598 12.2151 66.9209 12.5339 66.4051 13.1735C65.8895 13.8129 65.56 14.799 65.56 16.3037C65.56 17.7748 65.888 18.7623 66.4051 19.4035C66.9067 20.0254 67.5362 20.3315 68.4616 20.3315C69.3726 20.3315 70.0185 20.0505 70.5051 19.5299ZM78.1606 17.9599C78.4981 17.1704 79.032 16.4741 79.7705 15.8979H78.1606V17.9599ZM83.4319 14.6297C83.4346 14.5998 83.4375 14.5699 83.4406 14.5403C83.5447 13.5457 83.9079 12.7242 84.5581 12.1035C85.1972 11.4948 86.1103 11.16 87.2973 11.16C88.4235 11.16 89.2453 11.4035 89.7931 11.86C90.3105 12.347 90.5845 12.8949 90.5845 13.5036C90.5845 13.58 90.5808 13.6544 90.5734 13.7268C90.5534 13.9241 90.5062 14.1066 90.4323 14.2734C90.3241 14.5178 90.1587 14.729 89.938 14.9051C89.8991 14.9361 89.8584 14.9661 89.8161 14.995C89.6996 15.0744 89.5701 15.1454 89.4279 15.208C89.3918 15.2247 89.3546 15.2409 89.3163 15.2566C89.2275 15.2931 89.1326 15.3273 89.0314 15.3591C88.2179 15.6151 87.003 15.7208 85.3494 15.695C85.0954 15.695 84.8488 15.7006 84.6096 15.7119C84.1944 15.7314 83.8016 15.7679 83.4319 15.8213C83.276 15.8438 83.1242 15.8693 82.9765 15.8979C81.9838 16.0898 81.1779 16.4178 80.5709 16.882C79.5057 17.7038 78.9882 18.8299 78.9882 20.23C78.9882 21.6605 79.4752 22.7562 80.4492 23.4867C81.4231 24.2172 82.7319 24.5824 84.3146 24.5824C85.9886 24.5824 87.3887 24.1259 88.4844 23.1823C88.8319 22.8927 89.1335 22.5602 89.3902 22.1858C89.5103 22.0106 89.6205 21.8263 89.721 21.6329C90.0021 21.0919 90.207 20.4799 90.3378 19.7991C90.3752 19.6047 90.4065 19.4046 90.4318 19.199C90.432 19.1977 90.4321 19.1964 90.4323 19.1952H90.5845L90.7062 24.0954H94.8456V14.0514C94.8456 12.2557 94.2064 10.7947 92.9585 9.63817C91.6802 8.48159 89.7931 7.9033 87.2669 7.9033C85.532 7.9033 84.0711 8.20766 82.8841 8.81639C81.6666 9.42511 80.7535 10.2469 80.1448 11.2513C79.7533 11.9169 79.475 12.6203 79.3102 13.3615C79.2187 13.7726 79.1621 14.1954 79.1404 14.6297H83.4319ZM90.5845 14.995H90.4323C90.3343 15.5336 90.1773 15.9935 89.9612 16.3588C89.9086 16.4476 89.8526 16.5307 89.7931 16.6081C89.6685 16.7826 89.5082 16.9366 89.3163 17.0723C89.0395 17.2681 88.6972 17.4258 88.3017 17.5516C87.6321 17.7951 86.6886 17.9473 85.4712 18.0082C84.8016 18.069 84.2842 18.2516 83.9189 18.556C83.5537 18.8908 83.3711 19.3169 83.3711 19.8648C83.3711 20.4735 83.5537 20.93 83.9798 21.2648C84.4059 21.5996 85.0146 21.7518 85.806 21.7518C86.6582 21.7518 87.4495 21.5692 88.18 21.1431C88.3668 21.0419 88.5436 20.9308 88.7104 20.8103C88.9399 20.6445 89.1505 20.4609 89.3424 20.2608C89.5567 20.0372 89.7475 19.793 89.9149 19.53C89.9828 19.4232 90.0462 19.3156 90.1046 19.2071C90.1134 19.1908 90.122 19.1745 90.1306 19.1581C90.2559 18.9188 90.3574 18.6751 90.4323 18.4257C90.4814 18.262 90.5192 18.0959 90.5448 17.927C90.5587 17.8356 90.5689 17.7434 90.5756 17.6503C90.5815 17.5674 90.5845 17.4838 90.5845 17.3994V14.995ZM88.9534 18.6687C88.8724 18.6985 88.7914 18.7263 88.7105 18.7523C87.8766 19.0511 86.8059 19.2096 85.5625 19.2733C85.0967 19.3186 84.8629 19.4307 84.7527 19.513C84.6838 19.5823 84.6392 19.6642 84.6392 19.8648C84.6392 20.0447 84.6665 20.1332 84.6823 20.1703C84.6938 20.1974 84.7103 20.226 84.7633 20.2676C84.8706 20.3519 85.1474 20.4836 85.806 20.4836C86.4682 20.4836 87.0323 20.3444 87.541 20.0477L87.5583 20.0376L87.576 20.028C88.115 19.736 88.5336 19.3384 88.845 18.8491C88.8836 18.7884 88.9197 18.7283 88.9534 18.6687ZM84.7334 14.4375C84.9361 14.4303 85.1415 14.4268 85.3494 14.4268H85.3593L85.3692 14.427C87.316 14.4574 88.3922 14.2893 88.8965 14.0566L88.9068 14.0518L88.9171 14.0472C89.124 13.9562 89.2073 13.8661 89.2428 13.8139C89.2754 13.7661 89.3163 13.6799 89.3163 13.5036C89.3163 13.3283 89.2539 13.1049 88.9545 12.8127C88.7125 12.6252 88.2296 12.4282 87.2973 12.4282C86.3522 12.4282 85.782 12.6895 85.4332 13.0214C85.0817 13.3571 84.8377 13.8097 84.7334 14.4375ZM96.4351 25.3636V1.52182H103.293V25.3636H96.4351ZM102.025 24.0954H97.7032V2.79H102.025V24.0954ZM104.113 25.3636V7.1221H105.713C105.392 6.95073 105.092 6.72886 104.819 6.45644C104.096 5.73314 103.717 4.83291 103.717 3.79439C103.717 2.79467 104.09 1.86152 104.819 1.13235C105.526 0.425587 106.451 0 107.512 0C108.533 0 109.469 0.367059 110.204 1.10191C110.911 1.80868 111.336 2.73332 111.336 3.79439C111.336 4.87189 110.898 5.76237 110.204 6.45644C109.932 6.72886 109.632 6.95073 109.31 7.1221H110.971V25.3636H104.113ZM109.703 24.0954H105.381V8.39028H109.703V24.0954ZM118.658 8.37933L118.666 8.37282C119.982 7.23974 121.52 6.63512 123.298 6.63512C124.538 6.63512 125.724 6.92851 126.802 7.52338C127.883 8.1199 128.746 8.94864 129.407 10.051L129.416 10.0645L129.423 10.0782C130.064 11.208 130.38 12.5251 130.38 13.9601V25.3636H123.491V15.2689C123.491 14.2672 123.23 13.6191 122.878 13.2015C122.508 12.8253 121.978 12.5803 121.198 12.5803C120.309 12.5803 119.736 12.8749 119.335 13.3488C118.924 13.8351 118.631 14.6296 118.631 15.8776V25.3636H111.742V7.1221H118.439L118.484 8.53876C118.539 8.48718 118.594 8.43624 118.651 8.38596L118.658 8.37933ZM118.544 10.4162C118.431 10.5837 118.328 10.7574 118.233 10.9372C118.051 11.2815 117.903 11.6483 117.786 12.0378C117.679 12.3939 117.6 12.769 117.546 13.1629C117.546 13.1649 117.546 13.1668 117.546 13.1688H117.363L117.211 8.39028H113.011V24.0954H117.363V15.8776C117.363 15.3565 117.407 14.8758 117.496 14.437C117.511 14.3621 117.528 14.2885 117.546 14.2161C117.635 13.8521 117.757 13.5191 117.911 13.218C117.923 13.1952 117.935 13.1726 117.947 13.1502C118.068 12.9247 118.208 12.7177 118.367 12.5296C118.443 12.4407 118.521 12.3564 118.603 12.2769C118.791 12.0951 118.997 11.9378 119.22 11.806C119.77 11.4819 120.43 11.3122 121.198 11.3122C122.294 11.3122 123.176 11.6774 123.815 12.347C124.424 13.047 124.759 14.021 124.759 15.2689V24.0954H129.111V13.9601C129.111 12.7122 128.837 11.6165 128.32 10.7034C127.772 9.79035 127.072 9.12075 126.189 8.63377C125.307 8.14679 124.333 7.9033 123.298 7.9033C121.837 7.9033 120.589 8.39028 119.493 9.3338C119.126 9.66039 118.81 10.0212 118.544 10.4162ZM130.765 25.3636V1.52182H137.532V9.9121C137.532 10.6024 137.528 11.2884 137.519 11.9733C137.892 11.5852 138.321 11.1447 138.806 10.6589L139.242 10.2231L142.481 7.1221H151.138L145.744 12.3611C145.741 12.3633 145.739 12.3655 145.737 12.3677C145.098 13.0071 144.476 13.6073 143.872 14.1639C144.288 14.3388 144.68 14.5702 145.041 14.8657L145.053 14.8749L145.064 14.8843C145.913 15.6126 146.527 16.6362 146.994 17.7688L147.001 17.7875L149.842 25.3636H142.711L141.071 20.8531C141.07 20.852 141.07 20.8508 141.069 20.8497C140.824 20.1876 140.527 19.749 140.255 19.4715C140.104 19.3378 139.856 19.2155 139.399 19.2155H138.756L137.532 20.4017V25.3636H130.765ZM136.264 19.8648L138.242 17.9473H139.399C140.129 17.9473 140.708 18.1603 141.134 18.556C141.56 18.9821 141.955 19.5908 142.26 20.4126L143.599 24.0954H148.012L145.821 18.2516C145.395 17.2168 144.877 16.395 144.238 15.8472C143.823 15.5075 143.338 15.2732 142.782 15.1369C142.442 15.0533 142.075 15.0065 141.682 14.995L141.195 14.9645V14.8123C141.198 14.8096 141.201 14.8069 141.205 14.8042C141.368 14.672 141.532 14.5352 141.699 14.3942C141.706 14.3883 141.713 14.3823 141.72 14.3764C141.946 14.1856 142.174 13.9868 142.406 13.7803C143.181 13.0913 143.995 12.3166 144.847 11.4643L148.012 8.39028H142.99L140.129 11.1295L139.703 11.5557C138.912 12.347 138.273 13.0166 137.786 13.534C137.685 13.6472 137.585 13.763 137.484 13.8819C137.11 14.3242 136.736 14.8098 136.361 15.3665C136.349 15.3846 136.337 15.4028 136.325 15.4211L136.173 15.3602C136.173 15.347 136.173 15.3337 136.174 15.3205C136.195 14.6821 136.212 14.0473 136.226 13.4136C136.251 12.2482 136.264 11.0864 136.264 9.9121V2.79H132.033V24.0954H136.264V19.8648ZM107.512 6.29017C106.812 6.29017 106.203 6.04668 105.716 5.5597C105.229 5.07272 104.985 4.49443 104.985 3.79439C104.985 3.1248 105.229 2.51607 105.716 2.02909C106.203 1.54211 106.812 1.26818 107.512 1.26818C108.212 1.26818 108.82 1.51167 109.307 1.99865C109.794 2.48563 110.068 3.09436 110.068 3.79439C110.068 4.49443 109.794 5.07272 109.307 5.5597C108.82 6.04668 108.212 6.29017 107.512 6.29017Z" fill="#DCC152"/>
</svg>
